<svg width="496" height="292" viewBox="0 0 496 292" fill="none" xmlns="http://www.w3.org/2000/svg">
    <path d="M4 229.147C10.1667 162.147 60.7 23.7469 213.5 6.1469C366.3 -11.4531 444.833 83.4802 465 133.147" stroke="#F7FB00" stroke-width="7"/>
    <path d="M109.5 200.147L106.345 197.689L106.345 197.689L109.5 200.147ZM91.5 183.147L89.6973 179.576C89.425 179.714 89.1692 179.882 88.9351 180.077L91.5 183.147ZM58 241.647L61.9772 241.221L61.9772 241.221L58 241.647ZM132.5 200.147L136.247 201.546C136.902 199.794 136.254 197.821 134.687 196.798C133.12 195.775 131.054 195.974 129.712 197.279L132.5 200.147ZM117 241.647L113.253 240.247C112.539 242.159 113.378 244.302 115.201 245.22C117.024 246.137 119.245 245.536 120.356 243.824L117 241.647ZM148 235.147L146.633 238.906C147.071 239.065 147.534 239.147 148 239.147V235.147ZM195.5 200.147L199.16 201.761L199.16 201.761L195.5 200.147ZM177 203.647L180.401 205.752L180.401 205.752L177 203.647ZM179.5 235.147L179.823 239.134C180.37 239.089 180.903 238.933 181.387 238.674L179.5 235.147ZM220 195.147L223.784 196.444C224.436 194.542 223.575 192.452 221.773 191.561C219.971 190.67 217.787 191.255 216.672 192.928L220 195.147ZM208 230.147L204.216 228.85C203.556 230.776 204.448 232.891 206.289 233.762C208.129 234.634 210.331 233.983 211.402 232.251L208 230.147ZM233.5 193.647L235.9 190.447L235.9 190.447L233.5 193.647ZM243 209.147L242.434 205.187L242.434 205.187L243 209.147ZM282.5 188.647L286.078 190.436L286.078 190.436L282.5 188.647ZM265.5 183.147L266.986 186.861L266.986 186.861L265.5 183.147ZM242 222.647L245.736 221.218L245.736 221.218L242 222.647ZM275 206.147L278.137 208.629C279.439 206.982 279.248 204.61 277.698 203.194C276.149 201.778 273.769 201.801 272.246 203.246L275 206.147ZM233.5 274.147L231.238 277.446L231.238 277.446L233.5 274.147ZM277 206.147L275.104 202.625C274.197 203.113 273.514 203.932 273.196 204.911L277 206.147ZM309.5 188.647L312.521 191.269C313.787 189.81 313.83 187.655 312.623 186.147C311.416 184.64 309.304 184.209 307.604 185.125L309.5 188.647ZM338.5 183.147L342.373 184.146C342.867 182.231 341.887 180.242 340.068 179.467C338.248 178.692 336.135 179.363 335.096 181.047L338.5 183.147ZM288 287.147L288.784 283.225L288.784 283.225L288 287.147ZM298 239.647L295.432 236.58C295.2 236.774 294.991 236.994 294.809 237.235L298 239.647ZM341 203.647L338.877 200.257C338.721 200.354 338.573 200.462 338.432 200.58L341 203.647ZM408.186 178.143C410.393 178.04 412.098 176.168 411.996 173.961C411.893 171.754 410.021 170.049 407.814 170.151L408.186 178.143ZM369 163.647L369.206 167.642C370.728 167.563 372.073 166.626 372.675 165.226L369 163.647ZM398 96.1469L401.769 94.8069C401.218 93.2564 399.773 92.2018 398.128 92.149C396.484 92.0962 394.974 93.056 394.325 94.5679L398 96.1469ZM422 163.647L418.231 164.987C418.774 166.512 420.182 167.56 421.799 167.642L422 163.647ZM491.5 167.147L494.134 170.157C495.36 169.084 495.813 167.374 495.279 165.835C494.744 164.295 493.329 163.234 491.701 163.152L491.5 167.147ZM439.5 212.647L436.866 209.637C435.723 210.636 435.245 212.197 435.632 213.665L439.5 212.647ZM457 279.147L454.854 282.523C456.243 283.405 458.031 283.348 459.36 282.377C460.688 281.406 461.287 279.72 460.868 278.129L457 279.147ZM398 241.647L400.146 238.271C398.817 237.427 397.117 237.44 395.802 238.305L398 241.647ZM341 279.147L337.119 278.177C336.72 279.776 337.342 281.456 338.686 282.41C340.03 283.363 341.822 283.394 343.198 282.489L341 279.147ZM21.4138 239.104C30.1734 240.401 44.106 240.351 59.2947 236.549L57.3522 228.789C43.1697 232.339 30.2954 232.332 22.5862 231.19L21.4138 239.104ZM59.2947 236.549C77.3525 232.029 97.4392 222.136 112.655 202.605L106.345 197.689C92.4809 215.484 74.1276 224.59 57.3522 228.789L59.2947 236.549ZM112.655 202.605C119.379 193.975 123.177 187.476 124.302 182.672C124.879 180.211 124.901 177.567 123.534 175.3C122.124 172.962 119.799 171.941 117.701 171.561C113.774 170.85 108.698 171.997 104.08 173.508C99.2481 175.088 94.1104 177.348 89.6973 179.576L93.3027 186.718C97.473 184.612 102.227 182.531 106.567 181.111C111.12 179.622 114.497 179.111 116.274 179.433C117.028 179.569 116.868 179.738 116.683 179.431C116.541 179.195 116.846 179.425 116.513 180.847C115.819 183.81 113.021 189.119 106.345 197.689L112.655 202.605ZM88.9351 180.077C83.4356 184.673 75.7508 192.284 68.9894 201.336C62.2694 210.333 56.1893 221.114 54.3776 232.013L62.2693 233.325C63.7771 224.253 69.002 214.688 75.3988 206.124C81.7542 197.615 88.998 190.45 94.0649 186.216L88.9351 180.077ZM54.3776 232.013C53.824 235.344 53.6633 238.718 54.0228 242.073L61.9772 241.221C61.7054 238.683 61.8175 236.043 62.2693 233.325L54.3776 232.013ZM54.0228 242.073C54.4035 245.627 55.8148 248.8 58.8124 250.649C61.6476 252.399 65.019 252.397 68.0743 251.795C74.1559 250.598 81.7317 246.47 89.4386 241.308C105.077 230.833 123.301 214.667 135.288 203.015L129.712 197.279C117.865 208.794 100.04 224.578 84.9864 234.661C77.3475 239.778 70.9171 243.082 66.5288 243.946C64.3493 244.375 63.3698 244.061 63.013 243.841C62.8185 243.721 62.1965 243.267 61.9772 241.221L54.0228 242.073ZM128.753 198.747L113.253 240.247L120.747 243.046L136.247 201.546L128.753 198.747ZM120.356 243.824C124.328 237.699 130.475 228.605 136.003 221.218C138.778 217.509 141.326 214.328 143.327 212.179C144.345 211.086 145.096 210.398 145.579 210.042C145.828 209.859 145.85 209.881 145.681 209.946C145.574 209.987 144.716 210.312 143.596 209.892L146.404 202.402C144.884 201.831 143.52 202.206 142.812 202.478C142.041 202.774 141.366 203.209 140.834 203.601C139.754 204.397 138.605 205.512 137.473 206.727C135.174 209.195 132.422 212.651 129.597 216.425C123.925 224.006 117.672 233.261 113.644 239.47L120.356 243.824ZM143.596 209.892C142.545 209.498 142.087 208.748 141.966 208.522C141.843 208.289 141.853 208.201 141.896 208.423C141.981 208.856 142.045 209.655 142.045 210.906C142.047 213.392 141.818 216.579 141.642 220.15C141.474 223.561 141.357 227.298 141.683 230.364C141.845 231.885 142.14 233.503 142.734 234.922C143.315 236.307 144.448 238.112 146.633 238.906L149.367 231.388C150.177 231.682 150.285 232.243 150.113 231.83C149.953 231.45 149.766 230.715 149.639 229.518C149.386 227.146 149.463 223.983 149.633 220.544C149.794 217.265 150.047 213.652 150.045 210.901C150.044 209.532 149.985 208.104 149.748 206.888C149.63 206.286 149.429 205.518 149.035 204.775C148.644 204.038 147.855 202.946 146.404 202.402L143.596 209.892ZM148 239.147C154.873 239.147 163.268 235.329 170.871 230.462L166.558 223.724C159.199 228.435 152.454 231.147 148 231.147V239.147ZM170.871 230.462C176.951 226.57 182.956 221.725 187.938 216.758C192.859 211.851 197.039 206.569 199.16 201.761L191.84 198.532C190.305 202.013 186.928 206.468 182.289 211.093C177.71 215.659 172.151 220.144 166.558 223.724L170.871 230.462ZM199.16 201.761C200.179 199.451 200.852 197.356 201.092 195.497C201.325 193.69 201.21 191.586 199.997 189.799C198.68 187.859 196.665 187.141 194.923 187.024C193.274 186.914 191.613 187.299 190.161 187.815C187.219 188.86 184.007 190.85 181.154 193.184C178.285 195.532 175.515 198.446 173.599 201.541L180.401 205.752C181.735 203.598 183.84 201.324 186.221 199.375C188.618 197.413 191.031 195.996 192.839 195.354C193.762 195.026 194.257 194.997 194.389 195.006C194.429 195.009 193.82 194.943 193.378 194.292C193.04 193.794 193.269 193.616 193.158 194.474C193.054 195.281 192.696 196.593 191.84 198.532L199.16 201.761ZM173.599 201.541C171.598 204.774 169.334 209.068 167.596 213.534C165.892 217.912 164.531 222.862 164.718 227.263L172.711 226.923C172.594 224.18 173.483 220.465 175.051 216.435C176.586 212.492 178.616 208.635 180.401 205.752L173.599 201.541ZM164.718 227.263C164.855 230.475 165.851 233.895 168.698 236.32C171.516 238.722 175.384 239.494 179.823 239.134L179.177 231.16C175.891 231.426 174.475 230.733 173.886 230.231C173.326 229.754 172.792 228.833 172.711 226.923L164.718 227.263ZM181.387 238.674C203.856 226.656 216.929 206.965 223.328 197.366L216.672 192.928C210.271 202.529 198.144 220.638 177.613 231.62L181.387 238.674ZM216.216 193.85L204.216 228.85L211.784 231.444L223.784 196.444L216.216 193.85ZM211.402 232.251C215.303 225.942 221.247 216.567 226.402 208.936C228.988 205.108 231.329 201.788 233.096 199.523C233.997 198.368 234.653 197.612 235.063 197.211C235.296 196.983 235.272 197.047 235.045 197.179C234.938 197.241 234.547 197.462 233.948 197.559C233.277 197.667 232.151 197.635 231.1 196.847L235.9 190.447C234.749 189.584 233.495 189.528 232.669 189.662C231.915 189.784 231.342 190.078 231.027 190.261C230.385 190.634 229.844 191.125 229.469 191.492C228.664 192.28 227.741 193.381 226.788 194.602C224.848 197.089 222.383 200.594 219.773 204.458C214.536 212.211 208.53 221.685 204.598 228.043L211.402 232.251ZM231.1 196.847C230.644 196.505 230.558 196.229 230.806 196.646C230.977 196.933 231.204 197.373 231.494 197.993C232.087 199.259 232.721 200.788 233.502 202.574C234.245 204.273 235.093 206.141 235.996 207.746C236.796 209.168 238.013 211.099 239.719 212.205L244.069 205.491C244.173 205.558 243.764 205.238 242.969 203.825C242.278 202.595 241.564 201.044 240.833 199.371C240.14 197.785 239.388 195.987 238.74 194.601C238.409 193.895 238.052 193.178 237.681 192.555C237.388 192.063 236.804 191.125 235.9 190.447L231.1 196.847ZM239.719 212.205C240.624 212.79 241.961 213.336 243.566 213.107L242.434 205.187C243.311 205.062 243.909 205.387 244.069 205.491L239.719 212.205ZM243.566 213.107C244.509 212.972 245.834 212.509 246.996 212.076C248.326 211.581 249.99 210.91 251.856 210.119C255.595 208.536 260.252 206.429 264.874 204.182C269.485 201.939 274.13 199.524 277.816 197.324C279.652 196.228 281.325 195.141 282.66 194.119C283.817 193.233 285.311 191.969 286.078 190.436L278.922 186.858C279.064 186.575 278.964 186.873 277.797 187.767C276.807 188.524 275.426 189.433 273.715 190.454C270.307 192.489 265.89 194.792 261.376 196.987C256.873 199.177 252.342 201.226 248.737 202.753C246.932 203.517 245.385 204.139 244.203 204.579C242.854 205.082 242.366 205.197 242.434 205.187L243.566 213.107ZM286.078 190.436C287.902 186.787 287.913 181.231 283.005 178.237C278.725 175.626 272.233 176.146 264.014 179.433L266.986 186.861C274.767 183.748 278.005 184.558 278.839 185.067C279.047 185.194 279.558 185.587 278.922 186.858L286.078 190.436ZM264.014 179.433C251.845 184.301 241.507 195.898 238.055 207.727L245.734 209.968C248.494 200.512 257.087 190.82 266.986 186.861L264.014 179.433ZM238.055 207.727C236.48 213.12 236.261 218.837 238.264 224.075L245.736 221.218C244.511 218.015 244.513 214.153 245.734 209.968L238.055 207.727ZM238.264 224.075C239.21 226.549 240.675 228.628 242.809 229.95C244.962 231.282 247.337 231.561 249.557 231.276C253.747 230.737 258.089 228.108 261.858 225.191L256.961 218.865C253.408 221.615 250.496 223.089 248.538 223.341C247.683 223.45 247.26 223.296 247.02 223.147C246.762 222.988 246.241 222.539 245.736 221.218L238.264 224.075ZM261.858 225.191C268.01 220.428 274.123 213.704 278.137 208.629L271.863 203.665C268.068 208.463 262.41 214.646 256.961 218.865L261.858 225.191ZM272.246 203.246C267.587 207.668 262.046 213.244 256.464 219.322L262.356 224.733C267.81 218.795 273.223 213.349 277.754 209.048L272.246 203.246ZM256.464 219.322C247.355 229.24 237.957 240.689 232.178 250.722C229.312 255.698 227.132 260.667 226.515 265.121C225.876 269.724 226.88 274.458 231.238 277.446L235.762 270.848C234.755 270.158 234.053 269.001 234.439 266.22C234.845 263.292 236.42 259.386 239.11 254.715C244.443 245.455 253.364 234.523 262.356 224.733L256.464 219.322ZM231.238 277.446C233.999 279.339 237.076 279.756 240.087 278.934C242.907 278.164 245.469 276.372 247.735 274.226C252.267 269.935 256.697 263.176 260.768 255.65C268.971 240.485 276.433 220.832 280.804 207.383L273.196 204.911C268.9 218.129 261.612 237.275 253.732 251.844C249.761 259.185 245.816 265.026 242.234 268.417C240.442 270.114 239.013 270.934 237.98 271.216C237.138 271.446 236.501 271.355 235.762 270.848L231.238 277.446ZM278.896 209.669L311.396 192.169L307.604 185.125L275.104 202.625L278.896 209.669ZM306.479 186.025C302.512 190.595 297.077 197.917 293.793 205.033C292.165 208.561 290.9 212.387 290.838 215.976C290.773 219.748 292.074 223.558 295.815 225.997L300.185 219.296C299.326 218.736 298.806 217.9 298.837 216.114C298.871 214.146 299.618 211.503 301.057 208.385C303.906 202.21 308.821 195.532 312.521 191.269L306.479 186.025ZM295.815 225.997C300.271 228.903 305.337 226.901 308.989 224.589C312.929 222.096 317.089 218.115 321.054 213.691C329.036 204.784 337.002 193.193 341.904 185.247L335.096 181.047C330.332 188.768 322.647 199.927 315.096 208.352C311.294 212.595 307.717 215.927 304.711 217.829C301.417 219.914 300.329 219.39 300.185 219.296L295.815 225.997ZM334.627 182.147C332.46 190.545 329.537 200.873 326.102 211.719L333.729 214.135C337.208 203.149 340.171 192.681 342.373 184.146L334.627 182.147ZM326.102 211.719C320.469 229.506 313.514 248.507 306.321 262.652C302.709 269.753 299.154 275.393 295.823 279.037C292.314 282.875 290.028 283.473 288.784 283.225L287.216 291.069C292.865 292.199 297.852 288.674 301.727 284.435C305.78 280.002 309.721 273.612 313.451 266.278C320.941 251.553 328.05 232.065 333.729 214.135L326.102 211.719ZM288.784 283.225C287.116 282.891 286.159 282.322 285.585 281.773C285.022 281.232 284.593 280.486 284.356 279.381C283.84 276.982 284.334 273.364 285.96 268.752C289.158 259.68 295.88 249.086 301.191 242.059L294.809 237.235C289.287 244.541 282.009 255.897 278.415 266.092C276.645 271.113 275.545 276.458 276.535 281.062C277.05 283.46 278.149 285.726 280.049 287.548C281.94 289.36 284.384 290.503 287.216 291.069L288.784 283.225ZM300.568 242.714L332.483 215.994L327.348 209.86L295.432 236.58L300.568 242.714ZM332.483 215.994L343.568 206.714L338.432 200.58L327.348 209.86L332.483 215.994ZM343.123 207.037C350.604 202.351 362.922 195.253 375.466 189.242C381.737 186.237 388.009 183.53 393.726 181.534C399.502 179.518 404.462 178.316 408.186 178.143L407.814 170.151C402.938 170.378 397.119 171.876 391.089 173.981C385.001 176.107 378.442 178.945 372.009 182.027C359.145 188.191 346.562 195.443 338.877 200.257L343.123 207.037ZM301.206 171.142L369.206 167.642L368.794 159.652L300.794 163.152L301.206 171.142ZM372.675 165.226L401.675 97.7259L394.325 94.5679L365.325 162.068L372.675 165.226ZM394.231 97.487L418.231 164.987L425.769 162.307L401.769 94.8069L394.231 97.487ZM421.799 167.642L491.299 171.142L491.701 163.152L422.201 159.652L421.799 167.642ZM488.866 164.137L436.866 209.637L442.134 215.657L494.134 170.157L488.866 164.137ZM435.632 213.665L453.132 280.165L460.868 278.129L443.368 211.629L435.632 213.665ZM459.146 275.771L400.146 238.271L395.854 245.023L454.854 282.523L459.146 275.771ZM395.802 238.305L338.802 275.805L343.198 282.489L400.198 244.989L395.802 238.305ZM344.881 280.117L359.881 220.117L352.119 218.177L337.119 278.177L344.881 280.117Z" fill="#F7FB00"/>
</svg>
