<svg width="512" height="504" viewBox="0 0 512 504" fill="none" xmlns="http://www.w3.org/2000/svg">
<path fill-rule="evenodd" clip-rule="evenodd" d="M69.12 0.266998C50.347 0.266998 33.28 7.094 20.48 19.894C6.827 33.547 0 50.613 0 68.533C0 87.306 7.68 104.373 20.48 117.173C33.28 129.973 51.2 137.653 68.267 136.8H69.974C87.041 136.8 103.254 129.973 116.054 117.173C128.854 104.373 136.534 87.306 136.534 68.533C137.387 50.613 129.707 33.546 116.907 20.746C104.107 7.093 87.04 0.266998 69.12 0.266998ZM104.107 105.227C94.72 114.614 81.92 120.587 68.267 119.734C55.467 119.734 41.814 114.614 32.427 105.227C22.187 95.84 17.067 82.187 17.067 68.534C17.067 54.881 22.187 42.081 32.427 31.841C41.814 22.454 54.614 17.334 69.12 17.334C81.92 17.334 94.72 22.454 104.107 31.841C114.347 42.081 119.467 54.881 119.467 68.534C119.467 82.187 114.347 95.84 104.107 105.227ZM102.4 153.867H33.28C19.627 153.867 8.533 164.96 8.533 179.467V478.134C8.533 491.787 20.48 503.734 34.133 503.734H102.4C116.053 503.734 128 491.787 128 478.987V179.467C128 165.813 116.053 153.867 102.4 153.867ZM110.933 478.987C110.933 483.254 106.666 486.667 102.4 486.667H34.133C29.866 486.667 25.6 482.4 25.6 478.134V179.467C25.6 175.2 29.013 170.934 33.28 170.934H102.4C106.667 170.934 110.933 175.201 110.933 179.467V478.987ZM374.613 145.333H392.533C459.947 145.333 512 198.24 512.001 266.506V486.666C512.001 495.2 503.467 503.733 494.934 503.733H409.601C401.067 503.733 392.534 495.199 392.534 486.666V303.199C392.534 287.839 389.12 275.892 380.587 268.212C371.2 258.825 358.4 253.705 344.747 253.705C318.294 253.705 297.814 275.892 297.814 304.052V488.372C297.814 497.759 288.427 503.732 280.747 503.732H186.88C179.2 503.732 169.813 497.759 169.813 488.372V170.079C169.813 160.693 179.2 153.866 186.88 153.866H272.213C280.747 153.866 289.28 162.4 289.28 170.933V182.88C309.76 159.84 341.333 145.333 374.613 145.333ZM494.08 486.666L494.933 485.813V266.507C494.933 208.48 450.559 162.4 393.386 162.4H375.466C343.892 162.4 314.026 177.76 296.959 201.653L296.106 202.506L273.066 225.546V171.786L272.213 170.933H187.733V486.666H281.6V304.053C281.6 266.507 309.76 237.493 345.6 236.64C363.52 236.64 380.587 243.467 393.387 256.267C404.48 267.36 409.6 282.72 409.6 303.2L410.453 486.666H494.08Z" fill="#2c5282"/>
</svg>
